<?xml version="1.0" encoding="UTF-8" standalone="no"?>
<svg
   xmlns:dc="http://purl.org/dc/elements/1.1/"
   xmlns:cc="http://creativecommons.org/ns#"
   xmlns:rdf="http://www.w3.org/1999/02/22-rdf-syntax-ns#"
   xmlns:svg="http://www.w3.org/2000/svg"
   xmlns="http://www.w3.org/2000/svg"
   xmlns:sodipodi="http://sodipodi.sourceforge.net/DTD/sodipodi-0.dtd"
   xmlns:inkscape="http://www.inkscape.org/namespaces/inkscape"
   width="11in"
   height="8.5in"
   viewBox="0 0 3960 3060"
   id="svg2"
   version="1.1"
   sodipodi:docname="RPi-Logo-Reg-SCREEN-unregistered-001-printable.svg"
   inkscape:version="0.92.5 (2060ec1f9f, 2020-04-08)">
  <defs
     id="defs1049" />
  <sodipodi:namedview
     id="base"
     pagecolor="#ffffff"
     bordercolor="#666666"
     borderopacity="1.0"
     inkscape:pageopacity="0.0"
     inkscape:pageshadow="2"
     inkscape:zoom="0.72743055"
     inkscape:cx="566.05081"
     inkscape:cy="408"
     inkscape:document-units="in"
     inkscape:current-layer="svg2"
     showgrid="true"
     units="in"
     inkscape:window-width="1420"
     inkscape:window-height="1016"
     inkscape:window-x="0"
     inkscape:window-y="27"
     inkscape:window-maximized="0"
     showguides="false"
     inkscape:guide-bbox="true"
     showborder="false">
    <sodipodi:guide
       position="1980,1530"
       orientation="1,0"
       id="guide11949"
       inkscape:label=""
       inkscape:color="rgb(0,0,255)"
       inkscape:locked="false" />
    <sodipodi:guide
       position="1980,1530"
       orientation="0,1"
       id="guide11953"
       inkscape:label=""
       inkscape:color="rgb(0,0,255)"
       inkscape:locked="false" />
    <sodipodi:guide
       position="1980,1530"
       orientation="0.70710678,0.70710678"
       id="guide1009"
       inkscape:locked="false" />
    <sodipodi:guide
       position="1980,1530"
       orientation="-0.70710678,0.70710678"
       id="guide1816"
       inkscape:locked="false" />
    <inkscape:grid
       type="xygrid"
       id="grid2893"
       units="in"
       spacingx="108"
       spacingy="108"
       empspacing="4"
       originy="18"
       originx="36"
       visible="true" />
    <inkscape:grid
       type="xygrid"
       id="grid841"
       units="in"
       spacingx="270"
       spacingy="270"
       visible="false"
       originx="-180"
       originy="-630"
       empspacing="4"
       enabled="false" />
    <inkscape:grid
       type="xygrid"
       id="grid843"
       units="in"
       spacingx="180"
       spacingy="180"
       empspacing="2"
       originx="-180"
       originy="-270"
       visible="false"
       enabled="false" />
  </sodipodi:namedview>
  <metadata
     id="metadata7">
    <rdf:RDF>
      <cc:Work
         rdf:about="">
        <dc:format>image/svg+xml</dc:format>
        <dc:type
           rdf:resource="http://purl.org/dc/dcmitype/StillImage" />
        <dc:title></dc:title>
      </cc:Work>
    </rdf:RDF>
  </metadata>
  <g
     inkscape:groupmode="layer"
     id="layer10"
     inkscape:label="grids"
     sodipodi:insensitive="true"
     style="display:none">
    <g
       inkscape:groupmode="layer"
       id="layer7"
       inkscape:label="12x12"
       sodipodi:insensitive="true"
       style="display:none">
      <rect
         style="opacity:1;fill:none;fill-opacity:0.53333285;stroke:#000000;stroke-width:15.41067696;stroke-linecap:round;stroke-miterlimit:4;stroke-dasharray:none;stroke-dashoffset:0;stroke-opacity:1"
         id="rect837"
         width="4304.5894"
         height="4304.5894"
         x="-172.29468"
         y="-622.29468" />
    </g>
    <g
       style="display:none"
       inkscape:label="9x7 - outline - filled"
       id="g840"
       inkscape:groupmode="layer"
       sodipodi:insensitive="true">
      <rect
         y="18"
         x="36"
         height="3024"
         width="3888"
         id="rect838"
         style="fill:#ffa701;fill-opacity:0.50196078;stroke:#000000;stroke-width:7.5;stroke-linecap:round;stroke-miterlimit:4;stroke-dasharray:none;stroke-dashoffset:0;stroke-opacity:1" />
    </g>
    <g
       style="display:none"
       inkscape:label="5x3 - outline - filled"
       id="g844"
       inkscape:groupmode="layer"
       sodipodi:insensitive="true">
      <rect
         y="990"
         x="1080"
         height="1080"
         width="1800"
         id="rect842"
         style="opacity:1;fill:#ffa701;fill-opacity:0.50196078;stroke:#000000;stroke-width:15;stroke-linecap:round;stroke-miterlimit:4;stroke-dasharray:none;stroke-dashoffset:0;stroke-opacity:1" />
    </g>
    <g
       inkscape:groupmode="layer"
       id="layer3"
       inkscape:label="36x28"
       style="display:none"
       sodipodi:insensitive="true">
      <path
         style="fill:none;stroke:#c0c0c0;stroke-width:3.75px;stroke-linecap:butt;stroke-linejoin:miter;stroke-opacity:1"
         d="m 144,18 v 3024 m 216,0 V 18 m 216,0 v 3024 m 216,0 V 18 m 216,0 v 3024 m 216,0 V 18 m 216,0 v 3024 m 216,0 V 18 m 216,0 v 3024 m 216,0 V 18 m 216,0 v 3024 m 216,0 V 18 m 216,0 v 3024 m 216,0 V 18 m 216,0 v 3024 m 216,0 V 18 m 216,0 v 3024 m 216,0 V 18"
         id="path6655"
         inkscape:connector-curvature="0"
         sodipodi:nodetypes="cccccccccccccccccccccccccccccccccccc" />
      <path
         style="fill:none;stroke:#c0c0c0;stroke-width:3.75px;stroke-linecap:butt;stroke-linejoin:miter;stroke-opacity:1"
         d="m 36,126 h 3888 m 0,216 H 36 m 0,216 h 3888 m 0,216 H 36 m 0,216 h 3888 m 0,216 H 36 m 0,216 h 3888 m 0,216 H 36 m 0,216 h 3888 m 0,216 H 36 m 0,216 h 3888 m 0,216 H 36 m 0,216 h 3888 m 0,216 H 36"
         id="path1003"
         inkscape:connector-curvature="0"
         sodipodi:nodetypes="cccccccccccccccccccccccccccc" />
    </g>
    <g
       inkscape:groupmode="layer"
       id="layer2"
       inkscape:label="18x14"
       style="display:none"
       sodipodi:insensitive="true">
      <path
         style="opacity:1;fill:none;fill-rule:evenodd;stroke:#606060;stroke-width:3.75;stroke-linecap:butt;stroke-linejoin:miter;stroke-miterlimit:4;stroke-dasharray:none;stroke-opacity:1"
         d="m 36,234 h 3888 m 0,432 H 36 m 0,432 h 3888 m 0,432 H 36 m 0,432 h 3888 m 0,432 H 36 m 0,432 h 3888"
         id="path12865"
         inkscape:connector-curvature="0"
         sodipodi:nodetypes="cccccccccccccc" />
      <path
         style="opacity:1;fill:none;fill-rule:evenodd;stroke:#808080;stroke-width:3.75;stroke-linecap:butt;stroke-linejoin:miter;stroke-miterlimit:4;stroke-dasharray:none;stroke-opacity:1"
         d="m 252,18 v 3024 m 432,0 V 18 m 432,0 v 3024 m 432,0 V 18 m 432,0 v 3024 m 432,0 V 18 m 432,0 v 3024 m 432,0 V 18 m 432,0 v 3024"
         id="path1002"
         inkscape:connector-curvature="0"
         sodipodi:nodetypes="cccccccccccccccccc" />
    </g>
    <g
       inkscape:label="9x7"
       inkscape:groupmode="layer"
       id="layer1"
       style="display:none"
       sodipodi:insensitive="true">
      <path
         style="fill:none;stroke:#000000;stroke-width:3.75px;stroke-linecap:butt;stroke-linejoin:miter;stroke-opacity:1"
         d="m 468,18 v 3024 m 432,0 V 18 m 432,0 v 3024 m 432,0 V 18 m 432,0 v 3024 m 432,0 V 18 m 432,0 v 3024 m 432,0 V 18"
         id="path6758"
         inkscape:connector-curvature="0"
         sodipodi:nodetypes="cccccccccccccccc" />
      <path
         style="fill:none;stroke:#000000;stroke-width:3.75px;stroke-linecap:butt;stroke-linejoin:miter;stroke-opacity:1"
         d="m 36,450 h 3888 m 0,432 H 36 m 0,432 h 3888 m 0,432 H 36 m 0,432 h 3888 m 0,432 H 36"
         id="path1001"
         inkscape:connector-curvature="0"
         sodipodi:nodetypes="cccccccccccc" />
    </g>
    <g
       inkscape:groupmode="layer"
       id="layer4"
       inkscape:label="9x7 - outline"
       style="display:none"
       sodipodi:insensitive="true">
      <rect
         style="fill:none;stroke:#000000;stroke-width:7.5;stroke-linecap:round;stroke-miterlimit:4;stroke-dasharray:none;stroke-dashoffset:0;stroke-opacity:1"
         id="rect1004"
         width="3888"
         height="3024"
         x="36"
         y="18" />
    </g>
    <g
       inkscape:groupmode="layer"
       id="layer9"
       inkscape:label="5x3 - outline"
       sodipodi:insensitive="true"
       style="display:none">
      <rect
         style="opacity:1;fill:none;fill-opacity:0.53333285;stroke:#000000;stroke-width:15;stroke-linecap:round;stroke-miterlimit:4;stroke-dasharray:none;stroke-dashoffset:0;stroke-opacity:1"
         id="rect865"
         width="1800"
         height="1080"
         x="1080"
         y="990" />
    </g>
  </g>
  <g
     inkscape:groupmode="layer"
     id="layer5"
     inkscape:label="center_highlight"
     style="display:none"
     sodipodi:insensitive="true">
    <circle
       style="opacity:1;fill:none;fill-opacity:1;stroke:#000000;stroke-width:3.75;stroke-miterlimit:4;stroke-dasharray:7.5, 7.5;stroke-dashoffset:0;stroke-opacity:1"
       id="path1005"
       cx="1980"
       cy="1530"
       r="100" />
  </g>
  <g
     style="display:inline"
     inkscape:label="lighten"
     id="layer6"
     inkscape:groupmode="layer"
     sodipodi:insensitive="true">
    <path
       style="opacity:0.70800003;fill:#ffffff;fill-opacity:1;stroke:none;stroke-width:4.71900702px;stroke-linecap:round;stroke-miterlimit:4;stroke-dasharray:none;stroke-dashoffset:0;stroke-opacity:1"
       d="m -180,-627.14664 c 0,1439.04894 0,2878.09774 0,4317.14664 1439.9999,0 2880.0001,0 4320,0 0,-1439.9999 0,-2880.00004 0,-4320 -1439.9999,0 -2880.0001,0 -4320,0 v 1.42668 z"
       id="rect830"
       inkscape:connector-curvature="0" />
  </g>
  <g
     inkscape:groupmode="layer"
     id="layer8"
     inkscape:label="content"
     style="display:inline" />
  <g
     transform="matrix(6.3039822,0,0,-6.3039822,428.09155,3482.0838)"
     inkscape:label="ink_ext_XXXXXX"
     id="g10">
    <path
       d="m 133.28,619.306 c -3.179,-0.096 -6.604,-1.252 -10.487,-4.273 -9.516,3.615 -18.74,4.871 -26.9879,-2.486 -12.7371,1.628 -16.8774,-1.731 -20.0141,-5.651 -2.7953,0.057 -20.925,2.83 -29.2375,-9.384 -20.8914,2.434 -27.4953,-12.105 -20.014,-25.661 -4.2661,-6.507 -8.686,-12.935 1.2902,-25.337 -3.5285,-6.908 -1.341,-14.401 6.9746,-23.472 -2.1949,-9.711 2.1199,-16.562 9.8555,-21.902 -1.4481,-13.288 12.3715,-21.015 16.4984,-23.769 1.5836,-7.742 4.8871,-15.05 20.6723,-19.089 2.6019,-11.541 12.089,-13.533 21.2755,-15.955 C 72.7426,424.943 46.7074,402.07 46.8832,345.95 L 42.434,338.135 C 7.62109,317.281 -23.7016,250.255 25.2781,195.778 28.4773,178.723 33.843,166.475 38.6207,152.92 45.7668,98.291 92.4004,72.7121 104.701,69.6859 122.725,56.1641 141.92,43.3332 167.897,34.3441 192.385,9.46914 218.913,-0.0121094 245.589,0.003125 c 0.391,0 0.789,-0.00507813 1.18,0 26.675,-0.0160156 53.205,9.464065 77.691,34.340975 25.978,8.9891 45.174,21.82 63.198,35.3418 12.3,3.0262 58.933,28.6051 66.079,83.2341 4.777,13.555 10.144,25.803 13.342,42.858 48.981,54.482 17.659,121.513 -17.157,142.367 l -4.453,7.813 c 0.176,56.115 -25.863,78.988 -56.224,96.377 9.187,2.421 18.673,4.414 21.276,15.953 15.786,4.042 19.088,11.349 20.671,19.091 4.128,2.752 17.947,10.48 16.499,23.77 7.736,5.339 12.05,12.191 9.857,21.901 8.314,9.07 10.503,16.563 6.973,23.471 9.98,12.399 5.551,18.826 1.291,25.333 7.475,13.556 0.879,28.094 -20.021,25.659 -8.311,12.215 -26.434,9.441 -29.236,9.385 -3.137,3.92 -7.274,7.279 -20.012,5.651 -8.248,7.357 -17.473,6.101 -26.987,2.487 -11.299,8.781 -18.774,1.743 -27.313,-0.918 -13.677,4.402 -16.805,-1.629 -23.524,-4.084 -14.918,3.105 -19.451,-3.654 -26.603,-10.79 l -8.319,0.162 c -22.498,-13.058 -33.674,-39.652 -37.636,-53.323 -3.964,13.674 -15.117,40.267 -37.61,53.323 l -8.318,-0.162 c -7.16,7.136 -11.694,13.895 -26.61,10.79 -6.72,2.455 -9.838,8.486 -23.525,4.084 -5.605,1.746 -10.761,5.377 -16.829,5.192 l 0.011,-0.004"
       style="fill:#040606;fill-opacity:1;fill-rule:nonzero;stroke:none;stroke-width:0.1"
       id="path14"
       inkscape:connector-curvature="0" />
    <path
       d="m 88.932,561.851 c 59.692,-30.311 94.394,-54.833 113.404,-75.716 -9.735,-38.436 -60.524,-40.19 -79.094,-39.111 3.801,1.743 6.974,3.832 8.099,7.04 -4.659,3.26 -21.183,0.344 -32.7176,6.727 4.4296,0.905 6.5036,1.784 8.5746,5.006 -10.8968,3.423 -22.6367,6.374 -29.5402,12.046 3.7266,-0.047 7.2035,-0.821 12.0707,2.503 -9.7629,5.182 -20.1781,9.287 -28.2707,17.208 5.0457,0.12 10.4875,0.05 12.0695,1.877 -8.9335,5.451 -16.4726,11.515 -22.7128,18.147 7.0644,-0.84 10.0464,-0.117 11.7546,1.095 -6.7539,6.812 -15.3023,12.566 -19.3773,20.963 5.2445,-1.781 10.0422,-2.463 13.5016,0.156 -2.2957,5.101 -12.1286,8.108 -17.7903,20.024 5.5223,-0.526 11.3774,-1.185 12.5489,0 -2.5637,10.283 -6.9598,16.066 -11.2727,22.055 11.8152,0.172 29.7172,-0.046 28.9066,0.939 l -7.305,7.353 c 11.5406,3.06 23.3496,-0.492 31.9238,-3.13 3.8488,2.992 -0.0684,6.776 -4.7652,10.64 9.8089,-1.292 18.6715,-3.513 26.6815,-6.573 4.282,3.808 -2.777,7.615 -6.194,11.421 15.154,-2.832 21.575,-6.81 27.954,-10.795 4.63,4.371 0.265,8.085 -2.859,11.889 11.426,-4.168 17.312,-9.549 23.507,-14.861 2.101,2.792 5.337,4.839 1.43,11.577 8.111,-4.606 14.22,-10.033 18.742,-16.113 5.019,3.147 2.99,7.453 3.017,11.42 8.43,-6.756 13.781,-13.944 20.331,-20.963 1.318,0.945 2.474,4.155 3.493,9.23 20.112,-19.22 48.532,-67.63 7.306,-86.824 -35.087,28.503 -76.991,49.221 -123.4281,64.762 l 0.0121,0.008"
       style="fill:#63c54d;fill-opacity:1;fill-rule:nonzero;stroke:none;stroke-width:0.1"
       id="path16"
       inkscape:connector-curvature="0" />
    <path
       d="m 405.089,561.851 c -59.687,-30.316 -94.387,-54.829 -113.398,-75.716 9.736,-38.436 60.526,-40.19 79.096,-39.111 -3.803,1.743 -6.974,3.832 -8.099,7.04 4.66,3.26 21.183,0.344 32.718,6.727 -4.43,0.905 -6.504,1.784 -8.576,5.006 10.899,3.423 22.638,6.374 29.542,12.046 -3.726,-0.047 -7.206,-0.821 -12.071,2.503 9.761,5.182 20.178,9.287 28.27,17.208 -5.047,0.12 -10.487,0.05 -12.071,1.877 8.937,5.451 16.475,11.515 22.714,18.147 -7.063,-0.84 -10.045,-0.117 -11.754,1.095 6.755,6.812 15.302,12.566 19.378,20.963 -5.244,-1.781 -10.042,-2.463 -13.501,0.156 2.295,5.101 12.127,8.108 17.788,20.024 -5.521,-0.526 -11.375,-1.185 -12.547,0 2.567,10.288 6.965,16.07 11.276,22.06 -11.816,0.172 -29.716,-0.046 -28.908,0.938 l 7.309,7.352 c -11.543,3.061 -23.352,-0.49 -31.926,-3.128 -3.848,2.992 0.068,6.776 4.764,10.637 -9.808,-1.289 -18.671,-3.51 -26.682,-6.57 -4.28,3.806 2.779,7.613 6.194,11.42 -15.153,-2.832 -21.573,-6.811 -27.954,-10.794 -4.629,4.37 -0.263,8.085 2.86,11.888 -11.426,-4.167 -17.312,-9.548 -23.506,-14.86 -2.101,2.792 -5.336,4.838 -1.43,11.577 -8.113,-4.607 -14.221,-10.034 -18.741,-16.114 -5.02,3.148 -2.991,7.453 -3.019,11.419 -8.43,-6.754 -13.782,-13.943 -20.329,-20.962 -1.319,0.946 -2.474,4.156 -3.495,9.23 -20.113,-19.22 -48.534,-67.63 -7.305,-86.824 35.068,28.509 76.969,49.226 123.41,64.766 h -0.007"
       style="fill:#63c54d;fill-opacity:1;fill-rule:nonzero;stroke:none;stroke-width:0.1"
       id="path18"
       inkscape:connector-curvature="0" />
    <path
       d="m 319.2,170.472 c 0.208,-35.864 -31.636,-65.093 -71.123,-65.282 -39.487,-0.189 -71.668,28.732 -71.876,64.598 0,0.228 0,0.456 0,0.684 -0.207,35.866 31.635,65.095 71.124,65.283 39.487,0.189 71.668,-28.731 71.875,-64.598 0.001,-0.229 0.001,-0.456 0,-0.685"
       style="fill:#c51850;fill-opacity:1;fill-rule:nonzero;stroke:none;stroke-width:0.1"
       id="path20"
       inkscape:connector-curvature="0" />
    <path
       d="m 207.717,355.987 c 29.627,-19.117 34.968,-62.454 11.93,-96.792 -23.038,-34.339 -65.731,-46.68 -95.356,-27.562 v 0 c -29.6265,19.119 -34.968,62.456 -11.929,96.796 23.038,34.338 65.73,46.678 95.355,27.558 v 0"
       style="fill:#c51850;fill-opacity:1;fill-rule:nonzero;stroke:none;stroke-width:0.1"
       id="path22"
       inkscape:connector-curvature="0" />
    <path
       d="m 287.682,359.449 c -29.627,-19.118 -34.967,-62.456 -11.929,-96.793 23.039,-34.339 65.73,-46.68 95.356,-27.561 v 0 c 29.627,19.118 34.968,62.455 11.93,96.795 -23.038,34.339 -65.73,46.678 -95.357,27.559 v 0"
       style="fill:#c51850;fill-opacity:1;fill-rule:nonzero;stroke:none;stroke-width:0.1"
       id="path24"
       inkscape:connector-curvature="0" />
    <path
       d="M 61.4797,324.531 C 93.4641,332.976 72.2777,194.19 46.2535,205.577 17.6246,228.258 8.40352,294.678 61.4797,324.531"
       style="fill:#c51850;fill-opacity:1;fill-rule:nonzero;stroke:none;stroke-width:0.1"
       id="path26"
       inkscape:connector-curvature="0" />
    <path
       d="m 431.121,326.262 c -31.988,8.442 -10.798,-130.348 15.229,-118.961 28.627,22.682 37.847,89.108 -15.229,118.961 v 0"
       style="fill:#c51850;fill-opacity:1;fill-rule:nonzero;stroke:none;stroke-width:0.1"
       id="path28"
       inkscape:connector-curvature="0" />
    <path
       d="m 323.844,429.812 c 55.199,9.181 101.131,-23.121 99.277,-82.08 -1.815,-22.603 -119.615,78.715 -99.277,82.08"
       style="fill:#c51850;fill-opacity:1;fill-rule:nonzero;stroke:none;stroke-width:0.1"
       id="path30"
       inkscape:connector-curvature="0" />
    <path
       d="m 171.329,431.543 c -55.204,9.181 -101.1313,-23.129 -99.277,-82.082 1.8136,-22.602 119.614,78.716 99.277,82.082"
       style="fill:#c51850;fill-opacity:1;fill-rule:nonzero;stroke:none;stroke-width:0.1"
       id="path32"
       inkscape:connector-curvature="0" />
    <path
       d="m 247.378,445.292 c -32.946,0.844 -64.564,-24.085 -64.641,-38.543 -0.092,-17.569 26.048,-35.558 64.865,-36.015 39.641,-0.279 64.934,14.399 65.062,32.531 0.146,20.543 -36.052,42.345 -65.286,42.029 v -0.002"
       style="fill:#c51850;fill-opacity:1;fill-rule:nonzero;stroke:none;stroke-width:0.1"
       id="path34"
       inkscape:connector-curvature="0" />
    <path
       d="m 249.923,85.0172 c 28.723,1.2359 67.267,-9.1121 67.343,-22.8391 0.477,-13.3301 -34.956,-43.448 -69.248,-42.8672 -35.516,-1.5078 -70.339,28.6551 -69.883,39.111 -0.532,15.3301 43.244,27.298 71.788,26.5953 v 0"
       style="fill:#c51850;fill-opacity:1;fill-rule:nonzero;stroke:none;stroke-width:0.1"
       id="path36"
       inkscape:connector-curvature="0" />
    <path
       d="m 143.619,166.374 c 20.449,-24.269 29.772,-66.9049 12.707,-79.472 -16.147,-9.5961 -55.357,-5.645 -83.2276,33.792 -18.7925,33.088 -16.3722,66.763 -3.1746,76.653 19.7344,11.842 50.2252,-4.152 73.6952,-30.973 v 0"
       style="fill:#c51850;fill-opacity:1;fill-rule:nonzero;stroke:none;stroke-width:0.1"
       id="path38"
       inkscape:connector-curvature="0" />
    <path
       d="m 349.516,174.065 c -22.127,-25.527 -34.449,-72.088 -18.307,-87.083 15.433,-11.6488 56.864,-10.0199 87.469,31.805 22.221,28.091 14.775,75.007 2.083,87.464 -18.858,14.366 -45.926,-4.019 -71.245,-32.178 v -0.008"
       style="fill:#c51850;fill-opacity:1;fill-rule:nonzero;stroke:none;stroke-width:0.1"
       id="path40"
       inkscape:connector-curvature="0" />
  </g>
</svg>
